<mxfile host="app.diagrams.net" modified="2023-05-15T13:17:47.655Z" agent="Mozilla/5.0 (Windows NT 10.0; Win64; x64) AppleWebKit/537.36 (KHTML, like Gecko) Chrome/110.0.0.0 YaBrowser/23.3.3.719 Yowser/2.5 Safari/537.36" etag="6--MLFdC-xrNj-zB4ZqK" version="21.2.4" type="device">
  <diagram name="Страница 1" id="yoIMpZfNLGGddQaphyBw">
    <mxGraphModel dx="1803" dy="994" grid="1" gridSize="10" guides="1" tooltips="1" connect="1" arrows="1" fold="1" page="1" pageScale="1" pageWidth="1169" pageHeight="1654" math="0" shadow="0">
      <root>
        <mxCell id="0" />
        <mxCell id="1" parent="0" />
        <mxCell id="5uMQ-c5tSESNx0mQYyOB-39" style="edgeStyle=orthogonalEdgeStyle;rounded=0;orthogonalLoop=1;jettySize=auto;html=1;exitX=0.5;exitY=1;exitDx=0;exitDy=0;" edge="1" parent="1" source="5uMQ-c5tSESNx0mQYyOB-1" target="5uMQ-c5tSESNx0mQYyOB-9">
          <mxGeometry relative="1" as="geometry" />
        </mxCell>
        <mxCell id="5uMQ-c5tSESNx0mQYyOB-1" value="Начало" style="ellipse;whiteSpace=wrap;html=1;" vertex="1" parent="1">
          <mxGeometry x="140" width="135" height="90" as="geometry" />
        </mxCell>
        <mxCell id="5uMQ-c5tSESNx0mQYyOB-65" value="" style="edgeStyle=orthogonalEdgeStyle;rounded=0;orthogonalLoop=1;jettySize=auto;html=1;" edge="1" parent="1" source="5uMQ-c5tSESNx0mQYyOB-9" target="5uMQ-c5tSESNx0mQYyOB-58">
          <mxGeometry relative="1" as="geometry" />
        </mxCell>
        <mxCell id="5uMQ-c5tSESNx0mQYyOB-9" value="Поиск рейсов по заданным параметрам" style="shape=process;whiteSpace=wrap;html=1;backgroundOutline=1;" vertex="1" parent="1">
          <mxGeometry x="147.5" y="310" width="120" height="60" as="geometry" />
        </mxCell>
        <mxCell id="5uMQ-c5tSESNx0mQYyOB-49" value="" style="edgeStyle=orthogonalEdgeStyle;rounded=0;orthogonalLoop=1;jettySize=auto;html=1;" edge="1" parent="1" source="5uMQ-c5tSESNx0mQYyOB-12" target="5uMQ-c5tSESNx0mQYyOB-18">
          <mxGeometry relative="1" as="geometry" />
        </mxCell>
        <mxCell id="5uMQ-c5tSESNx0mQYyOB-12" value="Отображение списка рейсов" style="shape=process;whiteSpace=wrap;html=1;backgroundOutline=1;" vertex="1" parent="1">
          <mxGeometry x="147.5" y="539" width="120" height="60" as="geometry" />
        </mxCell>
        <mxCell id="5uMQ-c5tSESNx0mQYyOB-50" value="" style="edgeStyle=orthogonalEdgeStyle;rounded=0;orthogonalLoop=1;jettySize=auto;html=1;" edge="1" parent="1" source="5uMQ-c5tSESNx0mQYyOB-18" target="5uMQ-c5tSESNx0mQYyOB-19">
          <mxGeometry relative="1" as="geometry" />
        </mxCell>
        <mxCell id="5uMQ-c5tSESNx0mQYyOB-67" style="edgeStyle=orthogonalEdgeStyle;rounded=0;orthogonalLoop=1;jettySize=auto;html=1;exitX=0;exitY=0.5;exitDx=0;exitDy=0;entryX=0.5;entryY=0;entryDx=0;entryDy=0;" edge="1" parent="1" source="5uMQ-c5tSESNx0mQYyOB-18" target="5uMQ-c5tSESNx0mQYyOB-46">
          <mxGeometry relative="1" as="geometry">
            <mxPoint x="90" y="1365" as="targetPoint" />
            <Array as="points">
              <mxPoint x="100" y="667" />
              <mxPoint x="100" y="1150" />
              <mxPoint x="208" y="1150" />
            </Array>
          </mxGeometry>
        </mxCell>
        <mxCell id="5uMQ-c5tSESNx0mQYyOB-18" value="Есть подходящий&amp;nbsp;&lt;br&gt;рейс?" style="rhombus;whiteSpace=wrap;html=1;" vertex="1" parent="1">
          <mxGeometry x="125" y="627" width="165" height="80" as="geometry" />
        </mxCell>
        <mxCell id="5uMQ-c5tSESNx0mQYyOB-51" value="" style="edgeStyle=orthogonalEdgeStyle;rounded=0;orthogonalLoop=1;jettySize=auto;html=1;" edge="1" parent="1" source="5uMQ-c5tSESNx0mQYyOB-19" target="5uMQ-c5tSESNx0mQYyOB-21">
          <mxGeometry relative="1" as="geometry" />
        </mxCell>
        <mxCell id="5uMQ-c5tSESNx0mQYyOB-19" value="Выбор подходящего рейса" style="whiteSpace=wrap;html=1;" vertex="1" parent="1">
          <mxGeometry x="147.5" y="760" width="120" height="60" as="geometry" />
        </mxCell>
        <mxCell id="5uMQ-c5tSESNx0mQYyOB-52" value="" style="edgeStyle=orthogonalEdgeStyle;rounded=0;orthogonalLoop=1;jettySize=auto;html=1;" edge="1" parent="1" source="5uMQ-c5tSESNx0mQYyOB-21" target="5uMQ-c5tSESNx0mQYyOB-24">
          <mxGeometry relative="1" as="geometry" />
        </mxCell>
        <mxCell id="5uMQ-c5tSESNx0mQYyOB-21" value="Отображение экрана подтверждения заказа" style="shape=process;whiteSpace=wrap;html=1;backgroundOutline=1;" vertex="1" parent="1">
          <mxGeometry x="147.5" y="870" width="120" height="60" as="geometry" />
        </mxCell>
        <mxCell id="5uMQ-c5tSESNx0mQYyOB-53" value="" style="edgeStyle=orthogonalEdgeStyle;rounded=0;orthogonalLoop=1;jettySize=auto;html=1;" edge="1" parent="1" source="5uMQ-c5tSESNx0mQYyOB-24" target="5uMQ-c5tSESNx0mQYyOB-31">
          <mxGeometry relative="1" as="geometry" />
        </mxCell>
        <mxCell id="5uMQ-c5tSESNx0mQYyOB-24" value="Подтверждение заказа" style="whiteSpace=wrap;html=1;" vertex="1" parent="1">
          <mxGeometry x="147.5" y="970" width="120" height="60" as="geometry" />
        </mxCell>
        <mxCell id="5uMQ-c5tSESNx0mQYyOB-54" value="" style="edgeStyle=orthogonalEdgeStyle;rounded=0;orthogonalLoop=1;jettySize=auto;html=1;" edge="1" parent="1" source="5uMQ-c5tSESNx0mQYyOB-31" target="5uMQ-c5tSESNx0mQYyOB-46">
          <mxGeometry relative="1" as="geometry" />
        </mxCell>
        <mxCell id="5uMQ-c5tSESNx0mQYyOB-31" value="Бронирование места на рейсе" style="shape=process;whiteSpace=wrap;html=1;backgroundOutline=1;" vertex="1" parent="1">
          <mxGeometry x="147.5" y="1070" width="120" height="60" as="geometry" />
        </mxCell>
        <mxCell id="5uMQ-c5tSESNx0mQYyOB-44" style="edgeStyle=orthogonalEdgeStyle;rounded=0;orthogonalLoop=1;jettySize=auto;html=1;exitX=0;exitY=0.5;exitDx=0;exitDy=0;entryX=0.75;entryY=0;entryDx=0;entryDy=0;endArrow=classic;endFill=1;" edge="1" parent="1" source="5uMQ-c5tSESNx0mQYyOB-36" target="5uMQ-c5tSESNx0mQYyOB-9">
          <mxGeometry relative="1" as="geometry">
            <mxPoint x="210" y="135" as="targetPoint" />
          </mxGeometry>
        </mxCell>
        <mxCell id="5uMQ-c5tSESNx0mQYyOB-36" value="Выбор начальной и конечной точки маршрута" style="shape=manualInput;whiteSpace=wrap;html=1;" vertex="1" parent="1">
          <mxGeometry x="260" y="80" width="110" height="110" as="geometry" />
        </mxCell>
        <mxCell id="5uMQ-c5tSESNx0mQYyOB-42" style="edgeStyle=orthogonalEdgeStyle;rounded=0;orthogonalLoop=1;jettySize=auto;html=1;exitX=1;exitY=0.5;exitDx=0;exitDy=0;entryX=0.363;entryY=0.013;entryDx=0;entryDy=0;entryPerimeter=0;endArrow=classic;endFill=1;" edge="1" parent="1" source="5uMQ-c5tSESNx0mQYyOB-37" target="5uMQ-c5tSESNx0mQYyOB-9">
          <mxGeometry relative="1" as="geometry">
            <mxPoint x="210" y="180" as="targetPoint" />
          </mxGeometry>
        </mxCell>
        <mxCell id="5uMQ-c5tSESNx0mQYyOB-37" value="Выбор количества пассижиров" style="shape=manualInput;whiteSpace=wrap;html=1;" vertex="1" parent="1">
          <mxGeometry x="10" y="80" width="110" height="110" as="geometry" />
        </mxCell>
        <mxCell id="5uMQ-c5tSESNx0mQYyOB-45" style="edgeStyle=orthogonalEdgeStyle;rounded=0;orthogonalLoop=1;jettySize=auto;html=1;exitX=1;exitY=0.5;exitDx=0;exitDy=0;entryX=0.25;entryY=0;entryDx=0;entryDy=0;endArrow=classic;endFill=1;" edge="1" parent="1" source="5uMQ-c5tSESNx0mQYyOB-38" target="5uMQ-c5tSESNx0mQYyOB-9">
          <mxGeometry relative="1" as="geometry">
            <mxPoint x="180" y="270" as="targetPoint" />
          </mxGeometry>
        </mxCell>
        <mxCell id="5uMQ-c5tSESNx0mQYyOB-38" value="Выбор даты поездки" style="shape=manualInput;whiteSpace=wrap;html=1;" vertex="1" parent="1">
          <mxGeometry x="12" y="208" width="110" height="110" as="geometry" />
        </mxCell>
        <mxCell id="5uMQ-c5tSESNx0mQYyOB-46" value="Конец" style="ellipse;whiteSpace=wrap;html=1;" vertex="1" parent="1">
          <mxGeometry x="140" y="1170" width="135" height="90" as="geometry" />
        </mxCell>
        <mxCell id="5uMQ-c5tSESNx0mQYyOB-55" value="Да" style="text;html=1;align=center;verticalAlign=middle;resizable=0;points=[];autosize=1;strokeColor=none;fillColor=none;" vertex="1" parent="1">
          <mxGeometry x="200" y="710" width="40" height="30" as="geometry" />
        </mxCell>
        <mxCell id="5uMQ-c5tSESNx0mQYyOB-59" value="" style="edgeStyle=orthogonalEdgeStyle;rounded=0;orthogonalLoop=1;jettySize=auto;html=1;" edge="1" parent="1" source="5uMQ-c5tSESNx0mQYyOB-58" target="5uMQ-c5tSESNx0mQYyOB-12">
          <mxGeometry relative="1" as="geometry" />
        </mxCell>
        <mxCell id="5uMQ-c5tSESNx0mQYyOB-68" style="edgeStyle=orthogonalEdgeStyle;rounded=0;orthogonalLoop=1;jettySize=auto;html=1;entryX=0.5;entryY=0;entryDx=0;entryDy=0;exitX=1;exitY=0.5;exitDx=0;exitDy=0;" edge="1" parent="1" source="5uMQ-c5tSESNx0mQYyOB-58" target="5uMQ-c5tSESNx0mQYyOB-46">
          <mxGeometry relative="1" as="geometry">
            <mxPoint x="295" y="427.4250000000002" as="sourcePoint" />
            <Array as="points">
              <mxPoint x="320" y="442" />
              <mxPoint x="320" y="1150" />
              <mxPoint x="208" y="1150" />
            </Array>
          </mxGeometry>
        </mxCell>
        <mxCell id="5uMQ-c5tSESNx0mQYyOB-58" value="Есть рейсы с такими параметрами?" style="rhombus;whiteSpace=wrap;html=1;" vertex="1" parent="1">
          <mxGeometry x="120" y="400" width="175" height="84.85" as="geometry" />
        </mxCell>
        <mxCell id="5uMQ-c5tSESNx0mQYyOB-60" value="Да" style="text;html=1;align=center;verticalAlign=middle;resizable=0;points=[];autosize=1;strokeColor=none;fillColor=none;" vertex="1" parent="1">
          <mxGeometry x="200" y="498" width="40" height="30" as="geometry" />
        </mxCell>
        <mxCell id="5uMQ-c5tSESNx0mQYyOB-70" value="Нет" style="text;html=1;align=center;verticalAlign=middle;resizable=0;points=[];autosize=1;strokeColor=none;fillColor=none;" vertex="1" parent="1">
          <mxGeometry x="289" y="421" width="40" height="30" as="geometry" />
        </mxCell>
        <mxCell id="5uMQ-c5tSESNx0mQYyOB-71" value="Нет" style="text;html=1;align=center;verticalAlign=middle;resizable=0;points=[];autosize=1;strokeColor=none;fillColor=none;" vertex="1" parent="1">
          <mxGeometry x="94" y="646" width="40" height="30" as="geometry" />
        </mxCell>
      </root>
    </mxGraphModel>
  </diagram>
</mxfile>
